<svg width="50" height="50" viewBox="0 0 50 50" fill="none" xmlns="http://www.w3.org/2000/svg">
<path d="M39.2682 30.3704C44.0403 30.3704 47.9082 34.2382 47.9082 39.0104C47.9082 43.7825 44.0403 47.6504 39.2682 47.6504C34.496 47.6504 30.6282 43.7825 30.6282 39.0104C30.6282 34.2382 34.496 30.3704 39.2682 30.3704Z" stroke="white" stroke-width="3"/>
<path d="M12.3881 29.4102C17.6902 29.4102 21.9881 33.709 21.9881 39.0102C21.9881 44.3113 17.6902 48.6102 12.3881 48.6102C7.08607 48.6102 2.78815 44.3113 2.78815 39.0102C2.78815 33.709 7.08607 29.4102 12.3881 29.4102Z" fill="white"/>
<path d="M12.3881 36.1301C13.9788 36.1301 15.2681 37.4194 15.2681 39.0101C15.2681 40.6008 13.9788 41.8901 12.3881 41.8901C10.7974 41.8901 9.50812 40.6008 9.50812 39.0101C9.50812 37.4194 10.7974 36.1301 12.3881 36.1301Z" fill="#0D0D0D"/>
<path d="M10.8281 11.9199L22.0179 11.9804L25.8281 12.0102C33.2508 12.0102 39.2681 18.1474 39.2681 25.5702V29.4102" stroke="url(#paint0_linear_283_279)" stroke-width="9"/>
<path d="M12.3881 4.27075C16.6966 4.27075 20.1881 7.76227 20.1881 12.0708C20.1881 16.3792 16.6966 19.8708 12.3881 19.8708C8.07965 19.8708 4.58813 16.3792 4.58813 12.0708C4.58813 7.76227 8.07965 4.27075 12.3881 4.27075Z" stroke="white" stroke-width="8"/>
<path d="M12.3881 4.27075C16.6966 4.27075 20.1881 7.76227 20.1881 12.0708C20.1881 16.3792 16.6966 19.8708 12.3881 19.8708C8.07965 19.8708 4.58813 16.3792 4.58813 12.0708C4.58813 7.76227 8.07965 4.27075 12.3881 4.27075Z" fill="#0D0D0D"/>
<path d="M9.50812 12.0707C9.50812 13.6614 10.7974 14.9507 12.3881 14.9507C13.9788 14.9507 15.2681 13.6614 15.2681 12.0707C15.2681 10.48 13.9788 9.19067 12.3881 9.19067C10.7974 9.19067 9.50812 10.48 9.50812 12.0707Z" fill="url(#paint1_linear_283_279)"/>
<defs>
<linearGradient id="paint0_linear_283_279" x1="21.8076" y1="12.9702" x2="33.9286" y2="28.9906" gradientUnits="userSpaceOnUse">
<stop stop-color="#87F1FF"/>
<stop offset="1" stop-color="#0D0D0D" stop-opacity="0"/>
</linearGradient>
<linearGradient id="paint1_linear_283_279" x1="15.6886" y1="14.8307" x2="9.62812" y2="9.25019" gradientUnits="userSpaceOnUse">
<stop stop-color="#87F1FF"/>
<stop offset="1" stop-color="white"/>
</linearGradient>
</defs>
</svg>
