<svg width="44" height="44" viewBox="0 0 44 44" fill="none" xmlns="http://www.w3.org/2000/svg">
<path d="M41.9683 22.2404C41.9683 33.1642 33.112 42.0204 22.1883 42.0204C11.2637 42.0204 2.40833 33.1642 2.40833 22.2404C2.40833 11.3159 11.2637 2.46045 22.1883 2.46045" stroke="white" stroke-width="4" stroke-linecap="round" stroke-linejoin="round"/>
<path d="M39.3884 16.2205C39.3884 17.1708 40.1589 17.9405 41.1084 17.9405C42.0578 17.9405 42.8284 17.1708 42.8284 16.2205C42.8284 15.2702 42.0578 14.5005 41.1084 14.5005C40.1589 14.5005 39.3884 15.2702 39.3884 16.2205Z" fill="#87F1FF"/>
<path d="M35.0884 7.62039C35.0884 8.57069 35.8581 9.34039 36.8084 9.34039C37.7587 9.34039 38.5284 8.57069 38.5284 7.62039C38.5284 6.67009 37.7587 5.90039 36.8084 5.90039C35.8581 5.90039 35.0884 6.67009 35.0884 7.62039Z" fill="#87F1FF"/>
<path d="M28.2083 1.54712C27.258 1.54712 26.4883 2.31768 26.4883 3.26712C26.4883 4.21656 27.258 4.98712 28.2083 4.98712C29.1586 4.98712 29.9283 4.21656 29.9283 3.26712C29.9283 2.31768 29.1586 1.54712 28.2083 1.54712Z" fill="#87F1FF"/>
<path d="M10.1483 22.2404C10.1483 15.5909 15.5388 10.2004 22.1883 10.2004C28.8378 10.2004 34.2283 15.5909 34.2283 22.2404C34.2283 28.89 28.8378 34.2804 22.1883 34.2804" stroke="#87F1FF" stroke-width="8" stroke-linecap="round" stroke-linejoin="round"/>
<path d="M17.8884 22.2404C17.8884 24.6157 19.8139 26.5404 22.1883 26.5404C24.5636 26.5404 26.4883 24.6157 26.4883 22.2404C26.4883 19.8651 24.5636 17.9404 22.1883 17.9404C19.8139 17.9404 17.8884 19.8651 17.8884 22.2404Z" fill="white"/>
</svg>
