<svg width="154" height="135" viewBox="0 0 154 135" fill="none" xmlns="http://www.w3.org/2000/svg">
<path fill-rule="evenodd" clip-rule="evenodd" d="M39.3101 0.944171C38.9955 1.05201 38.4951 1.25435 38.1979 1.39379C37.7366 1.61032 5.7355 20.2959 4.21606 21.236C3.56924 21.6361 2.54828 22.5978 2.03515 23.2902C1.2775 24.3125 0.717661 25.6007 0.441385 26.9574C0.311838 27.5934 0.304321 28.7223 0.304321 47.4959C0.304321 66.2695 0.311838 67.3984 0.441385 68.0344C0.974686 70.6532 2.53301 72.9627 4.75296 74.4244C5.7559 75.0847 37.3662 93.399 38.1222 93.7577C40.5827 94.9253 43.7921 94.8792 46.5387 93.6369C46.8007 93.5184 51.5366 90.7892 57.0629 87.5719C62.5891 84.3547 70.9073 79.5231 75.5477 76.8352C83.3698 72.3041 87.088 70.1439 100.894 62.1092C106.566 58.8082 106.928 58.6112 107.867 58.317C109.003 57.9607 109.77 57.8664 111.137 57.9143C112.702 57.9692 113.793 58.2093 115.125 58.7922C115.623 59.0098 132.647 68.8758 133.533 69.4601C134.223 69.9148 135.418 71.11 135.925 71.8517C136.671 72.943 137.231 74.2494 137.537 75.6086C137.654 76.1277 137.669 77.2021 137.694 86.9584C137.723 98.341 137.717 98.6043 137.37 99.9009C136.812 101.984 135.419 104.008 133.632 105.331C133.086 105.734 116.809 115.454 115.748 116.009C113.204 117.341 109.812 117.339 106.937 116.004C106.348 115.731 89.8605 106.168 88.8169 105.494C88.4772 105.275 87.8609 104.756 87.4361 104.331C86.3369 103.232 85.6079 102.086 85.1104 100.676C84.5848 99.1854 84.6109 99.6115 84.5641 91.7857L84.5217 84.6859L76.9474 89.0628L69.373 93.4396L69.397 100.649C69.4203 107.674 69.4252 107.877 69.583 108.55C70.2162 111.247 71.7057 113.379 74.0137 114.891C74.6629 115.316 106.416 133.708 107.033 134.017C108.228 134.613 108.119 134.599 111.378 134.574L114.282 134.551L115.094 134.224C115.702 133.979 120.012 131.515 132.237 124.423C141.218 119.213 148.808 114.787 149.104 114.589C149.812 114.115 151.012 112.912 151.496 112.192C152.249 111.072 152.757 109.889 153.069 108.53L153.241 107.783L153.266 88.4157C153.282 75.8759 153.263 68.6973 153.213 68.0517C152.987 65.1259 151.604 62.5975 149.273 60.8473C148.598 60.3405 116.125 41.4785 115.317 41.1239C113.963 40.5299 112.532 40.2728 110.99 40.3466C109.579 40.4141 108.008 40.8064 106.81 41.3899C106.574 41.5049 101.342 44.569 95.1831 48.1991C85.6769 53.8019 82.8664 55.4166 76.5832 58.8856C69.5437 62.772 68.6356 63.2992 58.0216 69.6635C51.8836 73.3438 46.678 76.4473 46.4536 76.5601C44.7164 77.4334 42.0976 77.6871 39.9728 77.188C38.2644 76.7867 38.1783 76.7394 28.6452 70.9751C23.7728 68.029 19.5366 65.4292 19.2314 65.198C18.1631 64.3884 17.0837 63.0731 16.4541 61.8137C16.3207 61.5468 16.0934 60.9755 15.949 60.5442C15.4276 58.9858 15.4444 59.4566 15.4693 47.1124L15.4918 35.9908L15.6973 35.2452C16.3852 32.7505 17.7893 30.7599 19.8447 29.3653C20.3022 29.0549 36.7176 19.5 37.6576 18.997C38.9263 18.318 40.1046 18.0115 41.6844 17.9496C43.3045 17.8859 44.7141 18.141 46.2517 18.7759C46.8352 19.0169 63.9198 29.2747 65.0014 30.0335C65.6691 30.5019 66.7129 31.5664 67.2002 32.2758C67.9333 33.3431 68.4795 34.6005 68.8139 35.9908C68.9286 36.4675 68.9479 37.3416 68.9856 43.7853L69.0282 51.0428L76.3956 46.7766C80.4477 44.4302 83.8561 42.4491 83.9698 42.3744L84.1766 42.2384L84.1753 35.5864C84.1746 31.8919 84.1405 28.5281 84.0985 28.0207C83.8905 25.5108 82.896 23.4354 81.0629 21.6861C80.6871 21.3275 80.1209 20.8584 79.8045 20.6436C78.6612 19.8672 47.0045 1.32714 46.3631 1.05838L45.7111 0.78517L42.7965 0.766609L39.8819 0.748047L39.3101 0.944171Z" fill="#8247E5"/>
</svg>
