<svg width="46" height="46" viewBox="0 0 46 46" fill="none" xmlns="http://www.w3.org/2000/svg">
<g clip-path="url(#clip0_280_4)">
<path d="M22.8243 2.12744C34.2561 2.12744 43.5243 11.3947 43.5243 22.8274C43.5243 34.2592 34.2561 43.5274 22.8243 43.5274C11.3916 43.5274 2.12427 34.2592 2.12427 22.8274C2.12427 11.3947 11.3916 2.12744 22.8243 2.12744Z" stroke="white" stroke-width="4"/>
<g filter="url(#filter0_d_280_4)">
<path d="M31.8171 22.4432C31.8171 24.8957 30.8226 27.3914 29.1855 29.006L32.9808 32.849C35.5962 30.266 37.2243 26.3852 37.2243 22.4225L31.8171 22.4432Z" fill="#56EBFF"/>
<path d="M8.42426 22.7177H13.8243C13.8243 17.8316 17.8293 13.8275 22.8243 13.8275C27.8193 13.8275 31.8252 18.2393 31.8252 23.1254H37.2252C37.2252 23.0642 37.2243 22.7861 37.2234 22.7258C37.1253 14.8913 30.6912 8.42749 22.8243 8.42749C14.8953 8.42749 8.42426 14.8013 8.42426 22.7177Z" fill="url(#paint0_linear_280_4)"/>
</g>
<path d="M21.5436 27.1501C20.2818 26.3923 18.9399 25.5373 18.516 24.1279C18.0543 22.5925 18.4305 20.8591 19.6437 19.6459C20.856 18.4327 22.5903 18.0565 24.1257 18.5191C25.5342 18.9421 26.3901 20.284 27.147 21.5458L33.1806 31.6015C33.4533 32.0551 33.3822 32.6365 33.0078 33.01C32.6334 33.3844 32.0529 33.4555 31.5993 33.1828L21.5436 27.1501Z" fill="white"/>
<path d="M12.0243 31.8275C12.0243 32.822 12.8298 33.6275 13.8243 33.6275C14.8188 33.6275 15.6243 32.822 15.6243 31.8275C15.6243 30.833 14.8188 30.0275 13.8243 30.0275C12.8298 30.0275 12.0243 30.833 12.0243 31.8275Z" fill="#87F1FF"/>
<path d="M21.0243 36.3275C21.0243 37.3211 21.8298 38.1275 22.8243 38.1275C23.8188 38.1275 24.6243 37.3211 24.6243 36.3275C24.6243 35.3339 23.8188 34.5275 22.8243 34.5275C21.8298 34.5275 21.0243 35.3339 21.0243 36.3275Z" fill="#87F1FF"/>
<path d="M7.36139 25.8377C7.36139 26.8313 8.16689 27.6377 9.16139 27.6377C10.1559 27.6377 10.9614 26.8313 10.9614 25.8377C10.9614 24.8441 10.1559 24.0377 9.16139 24.0377C8.16689 24.0377 7.36139 24.8441 7.36139 25.8377Z" fill="#87F1FF"/>
</g>
<defs>
<filter id="filter0_d_280_4" x="-0.575745" y="-0.57251" width="46.8009" height="42.4215" filterUnits="userSpaceOnUse" color-interpolation-filters="sRGB">
<feFlood flood-opacity="0" result="BackgroundImageFix"/>
<feColorMatrix in="SourceAlpha" type="matrix" values="0 0 0 0 0 0 0 0 0 0 0 0 0 0 0 0 0 0 127 0" result="hardAlpha"/>
<feOffset/>
<feGaussianBlur stdDeviation="4.5"/>
<feComposite in2="hardAlpha" operator="out"/>
<feColorMatrix type="matrix" values="0 0 0 0 0.529412 0 0 0 0 0.945098 0 0 0 0 1 0 0 0 0.51 0"/>
<feBlend mode="normal" in2="BackgroundImageFix" result="effect1_dropShadow_280_4"/>
<feBlend mode="normal" in="SourceGraphic" in2="effect1_dropShadow_280_4" result="shape"/>
</filter>
<linearGradient id="paint0_linear_280_4" x1="11.7195" y1="22.2333" x2="24.6887" y2="17.4354" gradientUnits="userSpaceOnUse">
<stop stop-color="white"/>
<stop offset="1" stop-color="#4FEAFF"/>
</linearGradient>
<clipPath id="clip0_280_4">
<rect width="45" height="45" fill="white" transform="translate(0.324219 0.327393)"/>
</clipPath>
</defs>
</svg>
