<svg width="43" height="43" viewBox="0 0 43 43" fill="none" xmlns="http://www.w3.org/2000/svg">
<path d="M21.6283 2.04749C32.552 2.04749 41.4082 10.9028 41.4082 21.8273C41.4082 32.7509 32.552 41.6071 21.6283 41.6071C10.7038 41.6071 1.84851 32.7509 1.84851 21.8273C1.84851 10.9028 10.7038 2.04749 21.6283 2.04749Z" stroke="white" stroke-width="2"/>
<path d="M10.4484 21.8273C10.4484 15.6525 15.4536 10.6473 21.6284 10.6473C24.6745 10.6473 27.4359 11.866 29.4526 13.8414" stroke="url(#paint0_linear_280_149)" stroke-width="12"/>
<path d="M19.9083 34.7273C19.9083 35.6767 20.678 36.4473 21.6283 36.4473C22.5786 36.4473 23.3483 35.6767 23.3483 34.7273C23.3483 33.7779 22.5786 33.0073 21.6283 33.0073C20.678 33.0073 19.9083 33.7779 19.9083 34.7273Z" fill="#87F1FF"/>
<path d="M28.5084 30.4274C28.5084 31.3777 29.2789 32.1474 30.2283 32.1474C31.1786 32.1474 31.9483 31.3777 31.9483 30.4274C31.9483 29.4771 31.1786 28.7074 30.2283 28.7074C29.2789 28.7074 28.5084 29.4771 28.5084 30.4274Z" fill="#87F1FF"/>
<path d="M32.8083 21.8273C32.8083 22.7776 33.578 23.5473 34.5283 23.5473C35.4786 23.5473 36.2483 22.7776 36.2483 21.8273C36.2483 20.877 35.4786 20.1073 34.5283 20.1073C33.578 20.1073 32.8083 20.877 32.8083 21.8273Z" fill="#87F1FF"/>
<path d="M21.6283 21.8274H11.3084" stroke="white" stroke-width="4" stroke-linecap="round" stroke-linejoin="round"/>
<path d="M31.9483 11.5074L21.6284 21.8274" stroke="white" stroke-width="4" stroke-linecap="round" stroke-linejoin="round"/>
<path d="M21.6283 21.8274C21.6283 22.1714 14.6048 28.9937 10.8784 32.5773" stroke="white" stroke-width="2" stroke-linecap="round" stroke-linejoin="round"/>
<path d="M21.6283 18.3873C23.528 18.3873 25.0683 19.9276 25.0683 21.8273C25.0683 23.727 23.528 25.2673 21.6283 25.2673C19.7286 25.2673 18.1884 23.727 18.1884 21.8273C18.1884 19.9276 19.7286 18.3873 21.6283 18.3873Z" fill="white"/>
<path d="M21.6283 20.1073C22.5777 20.1073 23.3483 20.8779 23.3483 21.8273C23.3483 22.7767 22.5777 23.5473 21.6283 23.5473C20.6789 23.5473 19.9083 22.7767 19.9083 21.8273C19.9083 20.8779 20.6789 20.1073 21.6283 20.1073Z" fill="#0D0D0D"/>
<defs>
<linearGradient id="paint0_linear_280_149" x1="29.6797" y1="13.9257" x2="10.7898" y2="21.9761" gradientUnits="userSpaceOnUse">
<stop stop-color="#87F1FF"/>
<stop offset="1" stop-color="#637375" stop-opacity="0"/>
</linearGradient>
</defs>
</svg>
